<svg width="60" height="20" viewBox="0 0 60 20" fill="none" xmlns="http://www.w3.org/2000/svg">
  <rect width="60" height="20" rx="4" fill="#FFC439"/>
  <path d="M12 6.5C12.5 6.2 13.2 6 14 6C15.5 6 16.5 6.8 16.5 8C16.5 9.2 15.5 10 14 10C13.2 10 12.5 9.8 12 9.5V6.5Z" fill="#003087"/>
  <path d="M18 6.5C18.5 6.2 19.2 6 20 6C21.5 6 22.5 6.8 22.5 8C22.5 9.2 21.5 10 20 10C19.2 10 18.5 9.8 18 9.5V6.5Z" fill="#009CDE"/>
  <text x="30" y="12" font-family="Arial, sans-serif" font-size="8" font-weight="bold" fill="#003087">PayPal</text>
</svg>
