<svg width="248" height="66" viewBox="0 0 248 66" fill="none" xmlns="http://www.w3.org/2000/svg">
<g clip-path="url(#clip0_50_2)">
<path d="M53.8963 51.4951L64.1413 24.3223H72.6794L82.9252 51.4951H75.3405L73.7119 46.788H62.8313L61.2027 51.4951H53.8963ZM64.5389 41.4887H71.9647L70.0191 35.754C69.9132 35.4642 69.7875 35.1012 69.642 34.6666C69.4966 34.2311 69.3503 33.7705 69.2049 33.2823C69.0594 32.7949 68.9202 32.3004 68.7882 31.7988C68.6554 31.298 68.5234 30.8634 68.3914 30.4933H68.1131C68.0071 30.9941 67.8546 31.561 67.6561 32.1941C67.4577 32.8272 67.2593 33.4595 67.0608 34.0925C66.8624 34.7256 66.6837 35.2792 66.5248 35.754L64.5389 41.4887Z" fill="white"/>
<path d="M90.1122 51.4951V30.1366H81.2571V24.3223H106.076V30.1366H97.221V51.4951H90.1122Z" fill="white"/>
<path d="M110.484 51.4951V24.3223H117.592V34.7642H128.671V24.3223H135.779V51.4951H128.671V40.5391H117.592V51.4951H110.484Z" fill="white"/>
<path d="M142.093 51.4951V24.3223H149.201V45.6809H163.06V51.4951H142.092H142.093Z" fill="white"/>
<path d="M167.308 51.4951V24.3223H189.824V29.8602H174.417V34.9626H187.879V40.3816H174.417V45.958H190.103V51.4951H167.309H167.308Z" fill="white"/>
<path d="M195.384 51.4951V24.3223H202.492V36.3855L213.293 24.3223H222.109L211.943 35.4366L222.307 51.4951H213.889L207.018 40.2619L202.492 44.4147V51.4943H195.384V51.4951Z" fill="white"/>
<path d="M232.036 51.4951V30.1366H223.181V24.3223H248V30.1366H239.145V51.4951H232.037H232.036Z" fill="white"/>
<path d="M36.1504 46.6927L37.6011 48.9675L49.1663 65.0047L49.2778 66.0008L47.363 65.9969L13.3725 41.8241L13.4507 39.8304L28.2739 35.528C32.5027 34.0004 32.7533 28.2066 28.5285 26.4255L0.0213454 17.7065L0 15.7144L28.9886 15.7073C40.8622 16.3152 49.3205 22.0302 48.0627 34.9233C47.4887 40.8099 41.7618 45.6824 36.1504 46.6927Z" fill="#CBF26C"/>
<path d="M41.561 0.0322845C51.3419 -0.777961 51.7665 13.9269 42.2986 14.0584C33.4166 14.1821 32.7138 0.765364 41.561 0.0322845Z" fill="white"/>
</g>
<defs>
<clipPath id="clip0_50_2">
<rect width="248" height="66" fill="white"/>
</clipPath>
</defs>
</svg>
